<svg width="134" height="32" viewBox="0 0 134 32" fill="none" xmlns="http://www.w3.org/2000/svg">
<path d="M3.25303 18.8926C3.25303 28.0262 6.69374 30.4659 11.2605 30.4659C15.0141 30.4659 18.2045 28.2764 18.7675 24.2101H19.4556C18.83 28.902 15.4519 31.592 11.0728 31.592C4.06629 31.5294 0 26.2119 0 19.0803C0 11.761 4.00373 6.00562 10.76 6.00562C15.2017 6.00562 18.6424 8.69562 19.3305 13.3876H18.5799C17.9543 9.32121 14.7012 7.13167 10.9477 7.13167C6.94397 7.06911 3.25303 9.25866 3.25303 18.8926Z" fill="black"/>
<path d="M43.7909 19.0803H31.2791V31.154H28.2138V6.38092H31.2791V17.9542H43.7909V6.38092H46.8562V31.154H43.7909V19.0803Z" fill="black"/>
<path d="M57.4287 6.38095H71.0664V7.56957H60.494V18.142H70.3156V19.2679H60.494V30.028H71.5668V31.2166H57.4287V6.38095ZM69.1896 0L63.4342 4.50421H62.9963L65.8115 0H69.1896Z" fill="black"/>
<path d="M86.7184 18.9008H83.4653V30.5993H80.4V5.82617H87.2814C92.4737 5.82617 95.6642 8.14083 95.6642 12.1446C95.6642 15.2725 93.4747 17.8999 89.7837 18.6507L98.104 30.5993H94.4756L86.7184 18.9008ZM83.4653 7.01479V17.8373H88.2823C90.2842 17.8373 92.3486 16.5863 92.3486 12.3323C92.3486 8.20339 90.0966 7.01479 87.2188 7.01479H83.4653Z" fill="black"/>
<path d="M109.289 31.154H106.224V6.38092H109.289V31.154Z" fill="black"/>
<path d="M119.861 6.38092H133.499V7.56952H122.927V18.1419H132.749V19.268H122.927V30.028H134V31.2166H119.861V6.38092Z" fill="black"/>
</svg>
